<svg width="24" height="24" viewBox="0 0 24 24" fill="none" xmlns="http://www.w3.org/2000/svg">
<path d="M8.17 13.0029C8.40081 13.0029 8.62644 12.9345 8.81835 12.8063C9.01026 12.678 9.15984 12.4958 9.24816 12.2825C9.33649 12.0693 9.3596 11.8347 9.31457 11.6083C9.26954 11.3819 9.1584 11.174 8.99519 11.0108C8.83198 10.8475 8.62404 10.7364 8.39767 10.6914C8.17129 10.6463 7.93665 10.6695 7.7234 10.7578C7.51016 10.8461 7.3279 10.9957 7.19967 11.1876C7.07144 11.3795 7.003 11.6051 7.003 11.8359C7.003 12.1455 7.12595 12.4423 7.3448 12.6611C7.56366 12.88 7.86049 13.0029 8.17 13.0029ZM14.67 11.8359C14.67 12.0668 14.7385 12.2925 14.8667 12.4844C14.995 12.6763 15.1773 12.8259 15.3906 12.9142C15.6039 13.0025 15.8386 13.0256 16.065 12.9805C16.2914 12.9353 16.4994 12.8241 16.6625 12.6608C16.8257 12.4975 16.9368 12.2894 16.9817 12.063C17.0266 11.8366 17.0034 11.6019 16.9149 11.3887C16.8264 11.1754 16.6767 10.9932 16.4846 10.8651C16.2926 10.737 16.0668 10.6688 15.836 10.6689C15.5267 10.6692 15.2301 10.7923 15.0114 11.0111C14.7928 11.2299 14.67 11.5266 14.67 11.8359ZM9.507 8.59595C9.82521 8.25374 10.2104 7.98067 10.6387 7.79373C11.067 7.60679 11.5292 7.50998 11.9965 7.50932C12.4638 7.50867 12.9262 7.60418 13.355 7.78991C13.7838 7.97565 14.1698 8.24763 14.489 8.58895C14.6556 8.79542 14.8973 8.92727 15.1611 8.95549C15.4248 8.98372 15.689 8.906 15.8955 8.73945C16.102 8.57289 16.2338 8.33114 16.262 8.06737C16.2903 7.8036 16.2126 7.53942 16.046 7.33295C15.5396 6.75959 14.917 6.30044 14.2196 5.98596C13.5223 5.67148 12.766 5.50884 12.001 5.50884C11.236 5.50884 10.4797 5.67148 9.78236 5.98596C9.08499 6.30044 8.46244 6.75959 7.956 7.33295C7.79604 7.53923 7.72308 7.79988 7.75271 8.05923C7.78233 8.31858 7.9122 8.55607 8.11456 8.72096C8.31692 8.88585 8.57574 8.96508 8.83573 8.94172C9.09572 8.91836 9.33627 8.79427 9.506 8.59595L9.507 8.59595ZM12 23.4969C14.2745 23.4969 16.4979 22.8225 18.3891 21.5588C20.2802 20.2952 21.7542 18.4992 22.6246 16.3978C23.495 14.2965 23.7228 11.9842 23.279 9.75341C22.8353 7.52263 21.74 5.47352 20.1317 3.86522C18.5234 2.25692 16.4743 1.16165 14.2435 0.717918C12.0128 0.274188 9.70049 0.501925 7.59914 1.37233C5.49779 2.24274 3.70173 3.71672 2.43809 5.60789C1.17446 7.49905 0.499995 9.72246 0.499995 11.9969C0.503436 15.0459 1.71615 17.969 3.87207 20.1249C6.02799 22.2808 8.95106 23.4935 12 23.4969ZM12 2.49695C13.8789 2.49695 15.7156 3.05411 17.2779 4.09799C18.8402 5.14186 20.0578 6.62556 20.7769 8.36146C21.4959 10.0974 21.684 12.0075 21.3175 13.8503C20.9509 15.6931 20.0461 17.3859 18.7175 18.7145C17.3889 20.0431 15.6962 20.9478 13.8534 21.3144C12.0105 21.681 10.1004 21.4928 8.3645 20.7738C6.62861 20.0548 5.14491 18.8371 4.10103 17.2749C3.05716 15.7126 2.5 13.8759 2.5 11.9969C2.50264 9.4782 3.50438 7.06338 5.28541 5.28236C7.06643 3.50133 9.48125 2.49959 12 2.49695Z" fill="#262626"/>
</svg>
