<svg width="24" height="24" viewBox="0 0 24 24" fill="none" xmlns="http://www.w3.org/2000/svg">
<path d="M16.7919 3.904C18.1064 3.97667 19.3388 4.56591 20.2207 5.54331C21.1025 6.52071 21.5624 7.80705 21.4999 9.122C21.4999 12.194 18.8479 14.081 16.3029 16.344C13.7909 18.587 12.4379 19.813 11.9999 20.096C11.5229 19.787 9.85692 18.273 7.69692 16.344C5.14092 14.072 2.49992 12.167 2.49992 9.122C2.43749 7.80705 2.89731 6.52071 3.77918 5.54331C4.66105 4.56591 5.89349 3.97667 7.20792 3.904C7.93607 3.88193 8.65748 4.04919 9.30163 4.3894C9.94579 4.72962 10.4906 5.23117 10.8829 5.845C11.7229 7.02 11.8629 7.608 12.0029 7.608C12.1429 7.608 12.2809 7.02 13.1129 5.842C13.503 5.22533 14.048 4.7218 14.6936 4.38172C15.3392 4.04164 16.0627 3.87691 16.7919 3.904ZM16.7919 1.904C15.8839 1.87493 14.9809 2.05109 14.1504 2.41935C13.3198 2.78762 12.583 3.33851 11.9949 4.031C11.4073 3.34053 10.672 2.79091 9.84347 2.42276C9.0149 2.0546 8.1142 1.87732 7.20792 1.904C5.36279 1.97615 3.6213 2.77599 2.36426 4.1286C1.10722 5.48121 0.436916 7.27654 0.499921 9.122C0.499921 12.732 3.04992 14.949 5.51492 17.092C5.79792 17.338 6.08392 17.586 6.36792 17.839L7.39492 18.757C8.51496 19.8228 9.68919 20.8301 10.9129 21.775C11.2367 21.9846 11.6142 22.0962 11.9999 22.0962C12.3856 22.0962 12.7631 21.9846 13.0869 21.775C14.3496 20.8013 15.56 19.7615 16.7129 18.66L17.6349 17.836C17.9279 17.576 18.2249 17.317 18.5199 17.062C20.8539 15.037 23.4999 12.742 23.4999 9.122C23.5629 7.27654 22.8926 5.48121 21.6356 4.1286C20.3785 2.77599 18.6371 1.97615 16.7919 1.904Z" fill="#262626"/>
</svg>
