<svg width="24" height="22" viewBox="0 0 24 22" fill="none" xmlns="http://www.w3.org/2000/svg">
<path d="M16.7919 2.904C18.1064 2.97667 19.3388 3.56591 20.2207 4.54331C21.1025 5.52071 21.5624 6.80705 21.4999 8.122C21.4999 11.194 18.8479 13.081 16.3029 15.344C13.7909 17.587 12.4379 18.813 11.9999 19.096C11.5229 18.787 9.85692 17.273 7.69692 15.344C5.14092 13.072 2.49992 11.167 2.49992 8.122C2.43749 6.80705 2.89731 5.52071 3.77918 4.54331C4.66105 3.56591 5.89349 2.97667 7.20792 2.904C7.93607 2.88193 8.65748 3.04919 9.30163 3.3894C9.94579 3.72962 10.4906 4.23117 10.8829 4.845C11.7229 6.02 11.8629 6.608 12.0029 6.608C12.1429 6.608 12.2809 6.02 13.1129 4.842C13.503 4.22533 14.048 3.7218 14.6936 3.38172C15.3392 3.04164 16.0627 2.87691 16.7919 2.904ZM16.7919 0.904003C15.8839 0.87493 14.9809 1.05109 14.1504 1.41935C13.3198 1.78762 12.583 2.33851 11.9949 3.031C11.4073 2.34053 10.672 1.79091 9.84347 1.42276C9.0149 1.0546 8.1142 0.877316 7.20792 0.904003C5.36279 0.976155 3.6213 1.77599 2.36426 3.1286C1.10722 4.48121 0.436916 6.27654 0.499921 8.122C0.499921 11.732 3.04992 13.949 5.51492 16.092C5.79792 16.338 6.08392 16.586 6.36792 16.839L7.39492 17.757C8.51496 18.8228 9.68919 19.8301 10.9129 20.775C11.2367 20.9846 11.6142 21.0962 11.9999 21.0962C12.3856 21.0962 12.7631 20.9846 13.0869 20.775C14.3496 19.8013 15.56 18.7615 16.7129 17.66L17.6349 16.836C17.9279 16.576 18.2249 16.317 18.5199 16.062C20.8539 14.037 23.4999 11.742 23.4999 8.122C23.5629 6.27654 22.8926 4.48121 21.6356 3.1286C20.3785 1.77599 18.6371 0.976155 16.7919 0.904003Z" fill="#262626"/>
</svg>
