<svg width="24" height="24" viewBox="0 0 24 24" fill="none" xmlns="http://www.w3.org/2000/svg">
<path d="M12.003 2.00102C13.303 1.95927 14.5981 2.17927 15.8115 2.64796C17.0248 3.11664 18.1315 3.82443 19.0659 4.72929C20.0003 5.63414 20.7432 6.71758 21.2506 7.91524C21.758 9.11289 22.0194 10.4003 22.0194 11.701C22.0194 13.0017 21.758 14.2891 21.2506 15.4868C20.7432 16.6844 20.0003 17.7679 19.0659 18.6727C18.1315 19.5776 17.0248 20.2854 15.8115 20.7541C14.5981 21.2228 13.303 21.4428 12.003 21.401C11.0251 21.4037 10.0513 21.2746 9.10796 21.017C8.93097 20.9687 8.74274 20.9828 8.57496 21.057L6.59096 21.933C6.47099 21.9858 6.33992 22.0083 6.20923 21.9986C6.07854 21.9889 5.95223 21.9472 5.84137 21.8773C5.73052 21.8075 5.6385 21.7114 5.5734 21.5977C5.50829 21.484 5.47209 21.356 5.46796 21.225L5.41396 19.445C5.40945 19.3369 5.38322 19.2308 5.33683 19.1331C5.29045 19.0353 5.22485 18.9479 5.14396 18.876C4.14013 17.9724 3.34075 16.8649 2.79926 15.6275C2.25776 14.3902 1.98662 13.0515 2.00396 11.701C1.99636 10.3996 2.25209 9.11002 2.75579 7.90996C3.25948 6.7099 4.00071 5.62413 4.9349 4.71797C5.86909 3.81181 6.97693 3.10398 8.19177 2.63706C9.4066 2.17014 10.7033 1.95379 12.004 2.00102H12.003Z" stroke="black" stroke-width="1.739" stroke-miterlimit="10"/>
<path fill-rule="evenodd" clip-rule="evenodd" d="M17.7901 10.132C17.8736 10.0009 17.9081 9.84443 17.8875 9.69033C17.8668 9.53623 17.7923 9.3944 17.6772 9.28992C17.562 9.18543 17.4137 9.12502 17.2583 9.11936C17.1029 9.11371 16.9505 9.16317 16.8281 9.25901L14.2721 11.309C14.1631 11.3916 14.0302 11.4364 13.8934 11.4368C13.7567 11.4371 13.6235 11.393 13.5141 11.311L11.0601 9.47001C10.886 9.33966 10.6868 9.24676 10.4751 9.19715C10.2633 9.14755 10.0436 9.1423 9.82969 9.18175C9.61581 9.2212 9.41242 9.30449 9.2323 9.42638C9.05218 9.54827 8.89924 9.70613 8.7831 9.89001L6.2161 13.87C6.13181 14.001 6.09667 14.1577 6.11691 14.3121C6.13716 14.4666 6.21147 14.6089 6.32666 14.7138C6.44185 14.8187 6.59048 14.8794 6.74617 14.8851C6.90185 14.8908 7.05453 14.8412 7.1771 14.745L9.7331 12.696C9.8422 12.6132 9.97531 12.5682 10.1123 12.5679C10.2492 12.5675 10.3826 12.6118 10.4921 12.694L12.9441 14.534C13.1182 14.6645 13.3175 14.7576 13.5293 14.8073C13.7412 14.857 13.9611 14.8622 14.1751 14.8228C14.3891 14.7833 14.5926 14.7 14.7728 14.578C14.953 14.456 15.106 14.298 15.2221 14.114L17.7901 10.132Z" fill="#262626"/>
</svg>
