<svg width="16" height="16" viewBox="0 0 16 16" fill="none" xmlns="http://www.w3.org/2000/svg">
<g clip-path="url(#clip0_2_8)">
<path d="M12.6666 7.00001C12.6666 8.12077 12.3342 9.21636 11.7116 10.1482C11.0889 11.0801 10.2039 11.8064 9.16846 12.2353C8.13301 12.6642 6.99364 12.7764 5.89441 12.5578C4.79518 12.3391 3.78548 11.7994 2.99298 11.0069C2.20049 10.2145 1.66079 9.20475 1.44214 8.10552C1.22349 7.0063 1.33571 5.86692 1.7646 4.83147C2.1935 3.79602 2.91981 2.91101 3.85169 2.28835C4.78357 1.66569 5.87916 1.33334 6.99992 1.33334C8.50281 1.33334 9.94415 1.93037 11.0069 2.99307C12.0696 4.05578 12.6666 5.49712 12.6666 7.00001Z" stroke="#8E8E8E" stroke-width="1.33333" stroke-linecap="round" stroke-linejoin="round"/>
<path d="M11.0073 11.0073L14.6667 14.6667" stroke="#8E8E8E" stroke-width="1.33333" stroke-linecap="round" stroke-linejoin="round"/>
</g>
<defs>
<clipPath id="clip0_2_8">
<rect width="16" height="16" fill="white"/>
</clipPath>
</defs>
</svg>
